:SAMPLES-PER-SECOND 30
:FULLY-SPECIFIED
:DEGREES
155
root  20.1683 19.9947 -0.0449871 128.312 80.5645 143.329
RightUpLeg  -71.0006 0.359491 2.97684
RightLeg  111.172 17.0883 -12.4368
RightFoot  -26.3577 -0.398911 -3.51049
RightToes  2.85217e-009 -3.18055e-015 8.94531e-016
Spine  61.125 -3.00834 0.167905
Spine1  12.575 -1.76645 -3.53368
HEad  -26.6345 -0.877057 11.139
LeftShoulder1  0 -2.69403e-036 -1.28585e-037
LeftArm  -5.73893 -55.5155 -68.3958
LeftForeArm  -134.745 -52.2652 166.627
LeftHand  0.243124 4.87539 17.8957
RightShoulder  -2.48481e-017 0 -8.08114e-019
RightArm  -2.55096 38.4986 67.6724
RightForeArm  -91.4731 46.8181 -153.99
RightHand  4.29785 -17.1132 -26.1873
LeftUpLeg  -52.0129 -7.83523 14.0173
LeftLeg  131.763 5.21078 -21.2071
LeftFoot  24.9844 7.91103 -22.4198
LeftToes  -3.29237e-010 -4.9359e-011 -7.59376e-011
156
root  21.1681 20.2314 0.0976004 118.983 79.8096 135.458
RightUpLeg  -66.8013 0.452361 1.93644
RightLeg  112.847 17.254 -11.8384
RightFoot  -29.1574 -0.395443 -2.87981
RightToes  2.85217e-009 -3.18055e-015 8.94531e-016
Spine  60.9582 -2.90005 0.248214
Spine1  13.4427 -1.43353 -5.0453
HEad  -25.3164 -1.49568 9.93997
LeftShoulder1  0 -2.69403e-036 -1.28585e-037
LeftArm  -5.48848 -54.1284 -68.4023
LeftForeArm  -135.418 -51.9895 166.911
LeftHand  0.245851 4.89159 17.9939
RightShoulder  -2.48481e-017 0 -8.08114e-019
RightArm  -1.49991 38.89 68.1704
RightForeArm  -91.1069 47.0017 -153.714
RightHand  4.34663 -17.2329 -26.253
LeftUpLeg  -56.436 -6.79066 11.1341
LeftLeg  131.344 5.89093 -22.1827
LeftFoot  15.113 5.63597 -21.5318
LeftToes  -3.29237e-010 -4.9359e-011 -7.59376e-011
157
root  22.202 20.3175 0.272473 115.256 78.9019 133.072
RightUpLeg  -63.0412 0.141178 1.25519
RightLeg  115.023 17.408 -11.0333
RightFoot  -31.1845 -0.260693 -1.70786
RightToes  2.85217e-009 -3.18055e-015 8.94531e-016
Spine  60.7963 -2.80527 0.277777
Spine1  13.6481 -1.25525 -6.1236
HEad  -23.9285 -1.91526 9.22465
LeftShoulder1  0 -2.69403e-036 -1.28585e-037
LeftArm  -5.10703 -52.8683 -68.5954
LeftForeArm  -135.91 -51.5486 167.311
LeftHand  0.308854 5.03793 17.1463
RightShoulder  -2.48481e-017 0 -8.08114e-019
RightArm  -1.0603 38.8398 68.4733
RightForeArm  -91.5286 47.0555 -153.67
RightHand  4.28754 -17.1064 -26.1121
LeftUpLeg  -62.4927 -5.32218 7.18817
LeftLeg  129.608 4.25789 -21.7025
LeftFoot  3.01965 2.77666 -19.0596
LeftToes  -3.29237e-010 -4.9359e-011 -7.59376e-011
158
root  23.2445 20.193 0.431915 115.872 79.0594 133.702
RightUpLeg  -61.279 -0.0210486 2.21764
RightLeg  117.51 17.7199 -10.4237
RightFoot  -32.4275 -0.0204551 -0.180761
RightToes  2.85217e-009 -3.18055e-015 8.94531e-016
Spine  59.1215 -2.80758 0.79067
Spine1  13.999 -0.599372 -7.30487
HEad  -23.1725 -2.09829 8.99856
LeftShoulder1  0 -2.69403e-036 -1.28585e-037
LeftArm  -5.55155 -52.1982 -68.0932
LeftForeArm  -135.831 -51.2611 167.536
LeftHand  0.38996 5.21646 15.7957
RightShoulder  -2.48481e-017 0 -8.08114e-019
RightArm  -1.11625 38.5502 68.565
RightForeArm  -92.2719 47.0525 -153.727
RightHand  4.12297 -16.744 -25.735
LeftUpLeg  -70.3842 -3.37843 3.46905
LeftLeg  126.171 -0.115088 -18.8646
LeftFoot  -5.02338 1.163 -15.8706
LeftToes  -3.29237e-010 -4.9359e-011 -7.59376e-011
159
root  24.1123 19.9304 0.596489 114.839 79.0575 132.89
RightUpLeg  -60.0189 -0.0711751 3.0891
RightLeg  120.083 18.1337 -9.99293
RightFoot  -33.0752 0.26879 1.46765
RightToes  2.85217e-009 -3.18055e-015 8.94531e-016
Spine  57.9951 -2.53802 0.427487
Spine1  14.3589 0.116473 -8.40512
HEad  -23.1154 -2.03422 8.81863
LeftShoulder1  0 -2.69403e-036 -1.28585e-037
LeftArm  -6.79931 -52.0203 -66.6449
LeftForeArm  -135.721 -51.2603 167.528
LeftHand  0.439405 5.33736 15.058
RightShoulder  -2.48481e-017 0 -8.08114e-019
RightArm  -0.802121 38.415 68.9005
RightForeArm  -92.4549 47.114 -153.656
RightHand  4.02934 -16.5851 -25.3491
LeftUpLeg  -76.7121 -1.87008 -1.20252
LeftLeg  120.174 -5.65948 -13.9568
LeftFoot  -9.29069 0.392217 -11.6936
LeftToes  -3.29237e-010 -4.9359e-011 -7.59376e-011
160
root  24.7958 19.5273 0.705192 111 78.6569 130.331
RightUpLeg  -58.3511 -0.256093 3.19026
RightLeg  123.011 18.4542 -9.31736
RightFoot  -33.2916 0.5138 2.83221
RightToes  2.85217e-009 -3.18055e-015 8.94531e-016
Spine  58.3923 -2.26915 -0.459513
Spine1  14.423 0.441049 -9.12159
HEad  -23.3341 -1.83333 8.27327
LeftShoulder1  0 -2.69403e-036 -1.28585e-037
LeftArm  -8.09196 -51.9349 -64.7151
LeftForeArm  -135.657 -51.438 167.38
LeftHand  0.430825 5.32966 15.3641
RightShoulder  -2.48481e-017 0 -8.08114e-019
RightArm  -0.0421788 38.5438 69.5735
RightForeArm  -92.1797 47.2364 -153.467
RightHand  4.04758 -16.642 -25.3363
LeftUpLeg  -80.1574 -1.09852 -6.85844
LeftLeg  112.387 -10.0981 -8.43167
LeftFoot  -11.0315 0.152972 -9.22957
LeftToes  -3.29237e-010 -4.9359e-011 -7.59376e-011
161
root  25.4048 19.0049 0.724154 107.215 78.2795 128.733
RightUpLeg  -56.0439 -0.879305 2.8518
RightLeg  126.417 18.4179 -8.1204
RightFoot  -33.3674 0.665071 3.66431
RightToes  2.85217e-009 -3.18055e-015 8.94531e-016
Spine  59.9223 -2.25795 -1.01942
Spine1  14.3319 0.28828 -9.4015
HEad  -23.4213 -1.60433 7.29369
LeftShoulder1  0 -2.69403e-036 -1.28585e-037
LeftArm  -8.90407 -51.6409 -62.9165
LeftForeArm  -135.108 -51.6251 167.186
LeftHand  0.366758 5.1599 16.1392
RightShoulder  -2.48481e-017 0 -8.08114e-019
RightArm  0.793434 38.7375 70.3481
RightForeArm  -91.9883 47.3701 -153.268
RightHand  4.046 -16.6651 -25.2425
LeftUpLeg  -80.8906 -0.651001 -12.2799
LeftLeg  104.78 -12.0716 -4.82587
LeftFoot  -12.0326 0.0770904 -9.56408
LeftToes  -3.29237e-010 -4.9359e-011 -7.59376e-011
